#!OML:ASF F:\VICON\USERDATA\INSTALL\rory3\rory3.ASF
:FULLY-SPECIFIED
:DEGREES
1
root 0.05576600000000054 17.5942 -32.06219999999995 5.4385900000000005 -6.202559999999989 -0.9711690000000024
lfemur -1.65266000000004 0.024613699999998406 -23.642400000000002
ltibia 81.15419999999997
lfoot 33.63989999999997 -19.385099999999994
ltoes 2.0900099999999675
rfemur -35.012500000000045 5.483089999999997 28.488
rtibia 41.54660000000001
rfoot -8.268649999999983 -3.0553200000000027
rtoes 9.648039999999998
lowerback nan -0.9135930000000018 -0.810302999999998
upperback -0.597065 -1.1077800000000035 2.6107700000000023
thorax -10.344699999999998 -0.39971100000000204 3.6043699999999914
lowerneck -17.7282 -1.9389000000000025 -2.89667
upperneck 10.0534 -2.206550000000008 2.090370000000004
head 5.98288 -1.0150300000000023 0.910563
lclavicle -4.273870000000005e-15 4.373259999999995e-15
lhumerus -41.454899999999995 -16.422700000000006 95.7118
lradius 108.27
lwrist 29.817
lhand -21.871800000000004 3.876459999999999
lfingers nan
lthumb 4.5325799999999985 33.808
rclavicle -4.273870000000005e-15 4.373259999999995e-15
rhumerus -58.367600000000024 9.712660000000001 -93.94039999999998
rradius 98.30790000000002
rwrist -18.65800000000001
rhand -23.235599999999998 nan
rfingers nan
rthumb 3.2155399999999945 13.547300000000009
2
root 0.022598000000000673 17.4321 -31.12740000000008 5.225409999999999 -5.983229999999988 -2.3109100000000002
lfemur -6.235039999999982 1.4038099999999947 -19.74
ltibia 89.05100000000007
lfoot 33.75770000000005 -17.794699999999988
ltoes -0.21513400000000793
rfemur -33.65199999999998 8.326870000000012 29.9136
rtibia 46.167600000000014
rfoot -12.382500000000046 -7.806149999999999
rtoes 9.090289999999992
lowerback nan -0.936419 0.2359579999999981
upperback -0.39904700000000093 -0.884537000000003 2.903620000000001
thorax -10.518399999999996 -0.33948400000000134 3.286139999999996
lowerneck -18.0911 -1.9412499999999997 -3.0412799999999995
upperneck 10.4966 -2.2288899999999945 2.4893500000000017
head 6.19121 -0.9958570000000015 1.05682
lclavicle 2.5742599999999992e-14 -3.220310000000007e-14
lhumerus -42.058099999999996 -14.413100000000012 95.56890000000001
lradius 103.99499999999999
lwrist 29.948
lhand -22.872900000000005 3.3975599999999995
lfingers nan
lthumb 3.56589 33.3475
rclavicle 2.5742599999999992e-14 -3.220310000000007e-14
rhumerus -54.234700000000004 11.4583 -95.513
rradius 97.37599999999998
rwrist -21.0302
rhand -21.6316 nan
rfingers nan
rthumb 4.764469999999993 12.3813
3
root -2.674449999906514e-05 17.2757 -30.21819999999994 5.377180000000001 -4.897900000000001 -4.418560000000002
lfemur -11.922099999999997 2.333700000000001 -14.805799999999993
ltibia 96.15660000000008
lfoot 32.33049999999997 -18.5361
ltoes 2.540720000000036
rfemur -31.50600000000002 9.686150000000003 32.49
rtibia 48.929
rfoot -16.483999999999998 -11.303900000000006
rtoes 7.216450000000004
lowerback nan -1.0709100000000018 2.3717299999999994
upperback 0.13633700000000026 -0.5765579999999981 3.3809900000000006
thorax -10.028000000000002 -0.29583900000000174 2.497400000000005
lowerneck -20.361700000000003 -2.313340000000001 -3.214039999999999
upperneck 11.699200000000005 -2.7330699999999957 3.074739999999998
head 6.977800000000002 -1.1730299999999982 1.20413
lclavicle -2.8227400000000033e-14 2.7432299999999955e-14
lhumerus -41.89180000000001 -12.865100000000009 95.31110000000001
lradius 99.96019999999999
lwrist 30.009500000000003
lhand -23.1338 3.76036
lfingers nan
lthumb 3.3138500000000004 33.7144
rclavicle -2.8227400000000033e-14 2.7432299999999955e-14
rhumerus -48.8283 12.861399999999998 -96.4016
rradius 97.139
rwrist -22.5251
rhand -21.507599999999996 nan
rfingers nan
rthumb 4.884279999999995 11.720400000000005
4
root -0.024054000000000575 17.1826 -29.30319999999994 5.57644 -3.966960000000006 -4.841499999999996
lfemur -18.731900000000003 3.2880199999999946 -12.436800000000012
ltibia 101.6799999999999
lfoot 31.861600000000035 -17.49889999999999
ltoes 8.985580000000054
rfemur -28.825400000000016 10.1043 33.4165
rtibia 50.46160000000002
rfoot -19.289800000000035 -14.016499999999992
rtoes 2.1451899999999955
lowerback nan -1.0601699999999954 2.530089999999999
upperback 0.10766100000000078 -0.48036499999999704 3.622449999999996
thorax -10.3029 -0.2496219999999989 2.6612400000000056
lowerneck -20.9837 -2.485449999999999 -3.0544300000000004
upperneck 11.736800000000004 -2.942510000000002 2.7788600000000017
head 7.090709999999998 -1.2883200000000008 1.0518799999999997
lclavicle 3.97569000000005e-16 5.1683999999999804e-15
lhumerus -43.0261 -10.828200000000004 95.3608
lradius 97.00070000000002
lwrist 28.203899999999994
lhand -23.6222 4.851579999999998
lfingers nan
lthumb 2.842220000000001 34.81239999999999
rclavicle 3.97569000000005e-16 5.1683999999999804e-15
rhumerus -43.92710000000001 14.679300000000005 -96.9249
rradius 97.5427
rwrist -23.799999999999997
rhand -21.405999999999995 nan
rfingers nan
rthumb 4.982370000000005 11.196799999999998
5
root -0.025840300000001593 17.104499999999998 -28.398999999999987 5.94346 -3.1274700000000015 -4.600219999999999
lfemur -24.912300000000002 4.212009999999989 -11.409100000000004
ltibia 105.46399999999991
lfoot 27.9798 -16.885500000000018
ltoes 11.762799999999975
rfemur -25.94130000000002 9.672099999999995 33.6033
rtibia 50.88689999999999
rfoot -22.013800000000035 -15.671300000000008
rtoes -0.026271699999994347
lowerback nan -1.1000299999999972 2.255339999999999
upperback -0.21717399999999998 -0.5809339999999956 3.665280000000002
thorax -10.5569 -0.2796550000000001 2.8981599999999963
lowerneck -20.138100000000005 -2.5216899999999964 -3.197220000000001
upperneck 11.671 -2.951379999999997 2.6326300000000007
head 6.931090000000001 -1.320580000000001 1.0321600000000004
lclavicle -1.987850000000019e-16 1.3914899999999961e-14
lhumerus -45.508599999999994 -8.829009999999998 95.31779999999999
lradius 96.263
lwrist 26.382999999999996
lhand -23.026900000000005 4.51788
lfingers nan
lthumb 3.4171300000000024 34.4702
rclavicle -1.987850000000019e-16 1.3914899999999961e-14
rhumerus -40.80579999999999 15.717200000000005 -97.2254
rradius 100.02399999999999
rwrist -24.830300000000005
rhand -19.7702 nan
rfingers nan
rthumb 6.561649999999998 10.567400000000001
6
root -0.027242000000001432 17.156 -27.45840000000002 6.216289999999994 -2.308599999999999 -4.861689999999998
lfemur -30.68799999999999 5.2172299999999865 -10.32389999999999
ltibia 107.02999999999993
lfoot 23.574200000000026 -16.377799999999993
ltoes 2.399999999999995
rfemur -21.58960000000002 8.889940000000001 34.29079999999999
rtibia 49.37390000000001
rfoot -24.214899999999968 -15.99300000000001
rtoes 1.054839999999993
lowerback nan -1.2387800000000007 2.2487600000000003
upperback -0.676805 -0.7117520000000033 4.129860000000003
thorax -10.868199999999996 -0.32251799999999875 3.458049999999994
lowerneck -17.9776 -2.6145499999999995 -3.913770000000002
upperneck 10.7649 -2.9391000000000007 2.560950000000002
head 6.29312 -1.3711800000000012 1.1447999999999998
lclavicle -6.559889999999995e-15 6.361109999999982e-15
lhumerus -48.9254 -6.778179999999999 95.7834
lradius 97.70779999999999
lwrist 25.144400000000015
lhand -21.760600000000004 5.838720000000004
lfingers nan
lthumb 4.639910000000005 35.7679
rclavicle -6.559889999999995e-15 6.361109999999982e-15
rhumerus -39.17140000000002 17.175199999999997 -97.9135
rradius 103.845
rwrist -26.034
rhand -20.0812 nan
rfingers nan
rthumb 6.261440000000002 10.2123
7
root 0.0017458800000004215 17.2484 -26.450699999999955 6.539100000000003 -2.6537300000000013 -5.164009999999994
lfemur -35.07899999999999 7.220219999999991 -10.175500000000012
ltibia 106.38600000000005
lfoot 17.178 -15.517600000000005
ltoes -8.726379999999995
rfemur -16.3814 8.733799999999995 34.74079999999999
rtibia 46.35579999999999
rfoot -23.52599999999996 -15.76699999999999
rtoes -2.5910699999999958
lowerback nan -0.4337019999999988 3.096260000000002
upperback -0.5734839999999994 0.4411490000000018 3.7837999999999976
thorax -10.2617 0.1627120000000002 2.259310000000005
lowerneck -18.6802 -3.27743 -3.3653700000000004
upperneck 10.703300000000004 -3.9461100000000013 2.5871699999999977
head 6.41021 -1.8258100000000004 0.9484939999999995
lclavicle -3.081159999999998e-15 -9.541660000000008e-15
lhumerus -51.161899999999996 -7.830359999999998 95.8514
lradius 99.73550000000003
lwrist 26.179899999999993
lhand -20.475699999999996 6.38757
lfingers nan
lthumb 5.880579999999999 36.286
rclavicle -3.081159999999998e-15 -9.541660000000008e-15
rhumerus -36.93199999999998 15.964400000000005 -98.0781
rradius 108.117
rwrist -28.57719999999999
rhand -17.4586 nan
rfingers nan
rthumb 8.792830000000002 10.6155
8
root 0.024684500000000553 17.4546 -25.482399999999956 6.493949999999998 -1.1225400000000008 -5.1887200000000036
lfemur -39.488300000000024 6.44258000000001 -10.754400000000016
ltibia 103.76600000000008
lfoot 13.54849999999998 -15.445
ltoes -12.020800000000001
rfemur -11.639699999999998 7.378239999999995 35.01189999999999
rtibia 43.20939999999996
rfoot -20.8851 -14.805200000000008
rtoes -5.278129999999992
lowerback nan -0.29767400000000055 4.16692
upperback -0.99961 0.840857 3.383720000000002
thorax -10.873100000000004 0.2737689999999998 1.1221600000000023
lowerneck -18.0672 -3.87261 -3.411109999999999
upperneck 10.755399999999998 -4.86606 3.288630000000003
head 6.37491 -2.21709 1.0879599999999994
lclavicle -6.957459999999982e-16 -3.9756900000000005e-15
lhumerus -54.2186 -8.730430000000002 95.8165
lradius 102.28299999999999
lwrist 27.41860000000001
lhand -20.068600000000004 6.259610000000006
lfingers nan
lthumb 6.273569999999995 36.1467
rclavicle -6.957459999999982e-16 -3.9756900000000005e-15
rhumerus -36.25490000000002 15.003299999999998 -98.7068
rradius 112.864
rwrist -27.8782
rhand -18.9338 nan
rfingers nan
rthumb 7.36902 9.59123
9
root 0.06814899999999902 17.6924 -24.469000000000015 6.3536900000000065 -1.46488 -5.076759999999997
lfemur -41.73779999999996 6.7328499999999964 -11.972699999999994
ltibia 98.97140000000005
lfoot 11.459799999999994 -14.663300000000007
ltoes -8.58511999999999
rfemur -6.9693000000000165 7.201210000000005 34.59920000000001
rtibia 40.56859999999999
rfoot -17.3487 -12.70299999999999
rtoes -13.975799999999998
lowerback nan 0.48236500000000015 4.552310000000002
upperback -1.1601800000000004 1.9182100000000002 3.012590000000002
thorax -10.954099999999997 0.7436450000000001 0.215435
lowerneck -17.7415 -4.446079999999999 -3.3757099999999993
upperneck 10.708100000000002 -5.70509 3.602999999999999
head 6.34369 -2.598009999999999 1.0964599999999998
lclavicle -8.746529999999985e-15 -2.822740000000003e-14
lhumerus -56.040200000000006 -8.481820000000004 95.25789999999999
lradius 103.70899999999997
lwrist 27.74159999999999
lhand -19.563399999999994 6.973170000000003
lfingers nan
lthumb 6.761279999999996 36.8452
rclavicle -8.746529999999985e-15 -2.822740000000003e-14
rhumerus -35.55710000000001 14.628699999999998 -98.5576
rradius 116.86900000000001
rwrist -28.322999999999993
rhand -18.3555 nan
rfingers nan
rthumb 7.92722 11.554199999999996
